<svg width="168" height="164" viewBox="0 0 168 164" fill="none" xmlns="http://www.w3.org/2000/svg">
<path d="M73.4559 126.853C73.4559 132.681 78.2854 137.422 84.2239 137.422C90.1625 137.422 94.992 132.681 94.992 126.853C94.992 121.024 90.1625 116.284 84.2239 116.284C78.2854 116.284 73.4559 121.024 73.4559 126.853ZM89.608 126.853C89.608 129.767 87.1932 132.137 84.2239 132.137C81.2547 132.137 78.8399 129.767 78.8399 126.853C78.8399 123.939 81.2547 121.569 84.2239 121.569C87.1932 121.569 89.608 123.939 89.608 126.853Z" fill="black"/>
<path d="M111.144 39.6618H105.76V52.8726H111.144V39.6618Z" fill="black"/>
<path d="M140.756 56.6086V21.1667H135.372V54.4209L128.085 61.5732L131.891 65.3092L140.756 56.6086Z" fill="black"/>
<path d="M162.292 72.4615V42.304H156.908V70.2738L149.621 77.4261L153.427 81.1621L162.292 72.4615Z" fill="black"/>
<path d="M108.452 34.3775C112.905 34.3775 116.528 30.8212 116.528 26.451C116.528 22.0809 112.905 18.5246 108.452 18.5246C103.999 18.5246 100.376 22.0809 100.376 26.451C100.376 30.8212 103.999 34.3775 108.452 34.3775ZM108.452 23.8089C109.935 23.8089 111.144 24.9952 111.144 26.451C111.144 27.9069 109.935 29.0932 108.452 29.0932C106.969 29.0932 105.76 27.9069 105.76 26.451C105.76 24.9952 106.969 23.8089 108.452 23.8089Z" fill="black"/>
<path d="M86.916 21.1667H81.532V50.2304H86.916V21.1667Z" fill="black"/>
<path d="M84.224 15.8824C88.6765 15.8824 92.3 12.3261 92.3 7.95594C92.3 3.58582 88.6765 0.02948 84.224 0.02948C79.7714 0.02948 76.1479 3.58582 76.1479 7.95594C76.1479 12.3261 79.7714 15.8824 84.224 15.8824ZM84.224 5.31379C85.7073 5.31379 86.916 6.50012 86.916 7.95594C86.916 9.41177 85.7073 10.5981 84.224 10.5981C82.7407 10.5981 81.532 9.41177 81.532 7.95594C81.532 6.50012 82.7407 5.31379 84.224 5.31379Z" fill="black"/>
<path d="M138.064 15.8824C142.517 15.8824 146.14 12.3261 146.14 7.95594C146.14 3.58582 142.517 0.02948 138.064 0.02948C133.612 0.02948 129.988 3.58582 129.988 7.95594C129.988 12.3261 133.612 15.8824 138.064 15.8824ZM138.064 5.31379C139.547 5.31379 140.756 6.50012 140.756 7.95594C140.756 9.41177 139.547 10.5981 138.064 10.5981C136.581 10.5981 135.372 9.41177 135.372 7.95594C135.372 6.50012 136.581 5.31379 138.064 5.31379Z" fill="black"/>
<path d="M159.6 37.0197C164.053 37.0197 167.676 33.4633 167.676 29.0932C167.676 24.7231 164.053 21.1667 159.6 21.1667C155.148 21.1667 151.524 24.7231 151.524 29.0932C151.524 33.4633 155.148 37.0197 159.6 37.0197ZM159.6 26.4511C161.083 26.4511 162.292 27.6374 162.292 29.0932C162.292 30.549 161.083 31.7354 159.6 31.7354C158.117 31.7354 156.908 30.549 156.908 29.0932C156.908 27.6374 158.117 26.4511 159.6 26.4511Z" fill="black"/>
<path d="M62.6879 39.6618H57.304V55.5148H62.6879V39.6618Z" fill="black"/>
<path d="M27.6919 21.1667V56.6086L36.5567 65.3092L40.3632 61.5732L33.0759 54.4209V21.1667H27.6919Z" fill="black"/>
<path d="M6.15588 42.304V72.4615L20.4047 86.4465L24.2112 82.7105L11.5399 70.2738V42.304H6.15588Z" fill="black"/>
<path d="M59.9959 34.3775C64.4485 34.3775 68.072 30.8212 68.072 26.451C68.072 22.0809 64.4485 18.5246 59.9959 18.5246C55.5434 18.5246 51.9199 22.0809 51.9199 26.451C51.9199 30.8212 55.5434 34.3775 59.9959 34.3775ZM59.9959 23.8089C61.4792 23.8089 62.6879 24.9952 62.6879 26.451C62.6879 27.9069 61.4792 29.0932 59.9959 29.0932C58.5126 29.0932 57.3039 27.9069 57.3039 26.451C57.3039 24.9952 58.5126 23.8089 59.9959 23.8089Z" fill="black"/>
<path d="M30.3839 15.8824C34.8364 15.8824 38.4599 12.3261 38.4599 7.95594C38.4599 3.58582 34.8364 0.02948 30.3839 0.02948C25.9313 0.02948 22.3079 3.58582 22.3079 7.95594C22.3079 12.3261 25.9313 15.8824 30.3839 15.8824ZM30.3839 5.31379C31.8672 5.31379 33.0759 6.50012 33.0759 7.95594C33.0759 9.41177 31.8672 10.5981 30.3839 10.5981C28.9006 10.5981 27.6919 9.41177 27.6919 7.95594C27.6919 6.50012 28.9006 5.31379 30.3839 5.31379Z" fill="black"/>
<path d="M8.84786 37.0197C13.3004 37.0197 16.9239 33.4633 16.9239 29.0932C16.9239 24.7231 13.3004 21.1667 8.84786 21.1667C4.39529 21.1667 0.771851 24.7231 0.771851 29.0932C0.771851 33.4633 4.39529 37.0197 8.84786 37.0197ZM8.84786 26.4511C10.3312 26.4511 11.5399 27.6374 11.5399 29.0932C11.5399 30.549 10.3312 31.7354 8.84786 31.7354C7.36457 31.7354 6.15586 30.549 6.15586 29.0932C6.15586 27.6374 7.36457 26.4511 8.84786 26.4511Z" fill="black"/>
<path d="M113.343 113.188L108.487 115.471C108.896 116.311 109.265 117.175 109.583 118.06L110.065 119.402L116.528 120.987V132.713L110.065 134.299L109.583 135.641C109.265 136.528 108.899 137.39 108.487 138.23L107.862 139.511L111.289 145.121L102.842 153.412L97.1267 150.048L95.8211 150.661C94.9651 151.063 94.0848 151.425 93.183 151.737L91.8154 152.21L90.1975 158.559H78.2504L76.6352 152.215L75.2677 151.742C74.3632 151.43 73.4856 151.071 72.6295 150.667L71.3239 150.054L65.6088 153.417L55.6753 143.668L51.8688 147.404L64.7742 160.07L71.6469 156.025C71.8004 156.088 71.9538 156.152 72.1073 156.213L74.0455 163.843H94.4024L96.3461 156.215C96.4995 156.154 96.6529 156.091 96.8064 156.028L103.679 160.073L118.071 145.948L113.949 139.202C114.014 139.052 114.078 138.901 114.14 138.751L121.912 136.843V116.863L114.14 114.955C113.893 114.361 113.626 113.769 113.343 113.188Z" fill="black"/>
<path d="M46.536 116.863V136.843L54.3078 138.751C54.5528 139.348 54.8193 139.937 55.1047 140.518L59.961 138.235C59.5519 137.395 59.183 136.531 58.8654 135.646L58.3835 134.304L51.92 132.716V120.99L58.3835 119.405L58.8654 118.062C59.183 117.175 59.5492 116.313 59.961 115.473L60.5856 114.192L57.1587 108.582L65.6062 100.291L71.3213 103.655L72.6269 103.042C73.483 102.64 74.3633 102.278 75.2651 101.966L76.6326 101.494L78.2478 95.1497H90.1949L91.8102 101.494L93.1777 101.966C94.0822 102.278 94.9598 102.638 95.8159 103.042L97.1215 103.655L102.837 100.291L112.77 110.041L116.577 106.305L103.671 93.6384L96.7984 97.6835C96.645 97.6201 96.4915 97.5567 96.3381 97.4959L94.4025 89.8627H74.0456L72.102 97.4906C71.9485 97.5514 71.7951 97.6148 71.6416 97.6782L64.769 93.6331L50.3775 107.758L54.499 114.503C54.4344 114.654 54.3697 114.805 54.3078 114.955L46.536 116.863Z" fill="black"/>
<path d="M156.892 100.64C156.895 100.571 156.908 100.5 156.908 100.431C156.908 88.9486 147.526 79.5954 135.894 79.3206C133.735 75.6559 130.133 72.9239 125.85 71.8644C122.717 63.7424 114.703 58.1569 105.76 58.1569C102.435 58.1569 99.1592 58.9231 96.1792 60.3816C91.9689 57.2295 86.8379 55.5148 81.532 55.5148C75.3242 55.5148 69.3884 57.8689 64.9089 62.0171C62.5157 61.2377 59.961 60.7991 57.3039 60.7991C45.3407 60.7991 35.1918 69.4125 33.3828 80.935C28.4483 83.1147 24.6311 87.321 23.0751 92.6001C10.6138 93.5697 0.771851 103.811 0.771851 116.284C0.771851 129.395 11.6422 140.064 24.9999 140.064H41.1519V134.779H24.9999C14.6088 134.779 6.15586 126.483 6.15586 116.284C6.15586 106.086 14.6088 97.7893 24.9999 97.7893C30.7527 97.7893 36.1152 100.32 39.7144 104.73L43.9193 101.428C40.0778 96.7192 34.6669 93.7124 28.7095 92.8141C30.7258 87.9208 35.5579 84.5785 41.1519 84.5785C45.941 84.5785 50.407 87.1097 52.811 91.1812L57.4682 88.5338C54.1058 82.8347 47.855 79.2942 41.1519 79.2942C40.5005 79.2942 39.8598 79.3338 39.2244 79.3972C41.5261 71.6398 48.8295 66.0834 57.3039 66.0834C67.6951 66.0834 76.148 74.3798 76.148 84.5785H81.532C81.532 76.1342 77.0094 68.7229 70.2336 64.5034C73.4694 62.1228 77.4267 60.7991 81.532 60.7991C86.1568 60.7991 90.6148 62.4795 94.0875 65.5338L95.5869 66.8523L97.299 65.8139C99.8565 64.2629 102.783 63.4412 105.76 63.4412C111.626 63.4412 116.953 66.6515 119.78 71.521C111.879 72.5514 105.76 79.1911 105.76 87.2206H111.144C111.144 81.392 115.973 76.652 121.912 76.652C127.851 76.652 132.68 81.392 132.68 87.2206C132.68 93.0492 127.851 97.7893 121.912 97.7893V103.074C130.82 103.074 138.064 95.9635 138.064 87.2206C138.064 86.391 137.978 85.5825 137.854 84.7846C144.926 85.8626 150.488 91.4454 151.384 98.4498C149.702 98.035 147.952 97.7893 146.14 97.7893C138.519 97.7893 131.619 101.618 127.681 108.033L132.292 110.76C135.248 105.946 140.422 103.074 146.14 103.074C155.048 103.074 162.292 110.184 162.292 118.927C162.292 127.669 155.048 134.779 146.14 134.779H127.296V140.064H146.14C158.015 140.064 167.676 130.581 167.676 118.927C167.676 111.116 163.329 104.3 156.892 100.64Z" fill="black"/>
<path d="M148.832 118.927H143.448V124.211H148.832V118.927Z" fill="black"/>
<path d="M81.532 105.716V105.898C70.9255 107.206 62.688 116.094 62.688 126.853C62.688 138.507 72.3496 147.99 84.224 147.99C95.1859 147.99 104.242 139.905 105.574 129.495H105.76V124.211H105.574C104.355 114.667 96.6395 107.098 86.916 105.898V105.716H81.532ZM100.376 126.853C100.376 135.596 93.1319 142.706 84.224 142.706C75.3162 142.706 68.072 135.596 68.072 126.853C68.072 118.11 75.3162 111 84.224 111C93.1319 111 100.376 118.11 100.376 126.853Z" fill="black"/>
<path d="M27.6919 121.569H22.3079V126.853H27.6919V121.569Z" fill="black"/>
<path d="M68.072 76.652H62.688V81.9363H68.072V76.652Z" fill="black"/>
<path d="M100.376 74.0098H94.9921V79.2941H100.376V74.0098Z" fill="black"/>
</svg>
