<svg width="34" height="4" viewBox="0 0 34 4" fill="none" xmlns="http://www.w3.org/2000/svg">
<path d="M31.748 0.370122H2.60467C2.14162 0.371169 1.69789 0.552447 1.37084 0.874186C1.04378 1.19593 0.860107 1.63185 0.860107 2.08634C0.860107 2.54082 1.04378 2.97675 1.37084 3.29849C1.69789 3.62023 2.14162 3.80151 2.60467 3.80255H31.748C31.9779 3.80307 32.2057 3.75906 32.4184 3.67305C32.631 3.58703 32.8242 3.4607 32.987 3.30128C33.1498 3.14187 33.279 2.9525 33.3671 2.74402C33.4552 2.53554 33.5006 2.31205 33.5006 2.08634C33.5006 1.86063 33.4552 1.63714 33.3671 1.42866C33.279 1.22018 33.1498 1.03081 32.987 0.871392C32.8242 0.711975 32.631 0.585642 32.4184 0.499627C32.2057 0.413612 31.9779 0.369602 31.748 0.370122V0.370122Z" fill="#1D75B8"/>
</svg>