<svg width="97" height="114" viewBox="0 0 97 114" fill="none" xmlns="http://www.w3.org/2000/svg">
<path d="M86.9598 0.0847473H10.2044C7.7126 0.0874986 5.32365 1.06025 3.56168 2.7896C1.7997 4.51895 0.808592 6.86365 0.805786 9.30932V104.63C0.808594 107.076 1.7997 109.42 3.56168 111.15C5.32365 112.879 7.7126 113.852 10.2044 113.855H86.9598C89.4516 113.852 91.8405 112.879 93.6025 111.15C95.3645 109.42 96.3556 107.076 96.3584 104.63V9.30932C96.3556 6.86365 95.3645 4.51895 93.6025 2.7896C91.8405 1.06026 89.4516 0.087501 86.9598 0.0847473V0.0847473ZM88.004 104.63C88.0037 104.902 87.8936 105.162 87.6978 105.354C87.5021 105.546 87.2366 105.655 86.9598 105.655H10.2044C9.92755 105.655 9.66211 105.546 9.46634 105.354C9.27057 105.162 9.16045 104.902 9.16015 104.63V9.30932C9.16046 9.03758 9.27057 8.77707 9.46634 8.58492C9.66211 8.39278 9.92755 8.2847 10.2044 8.2844H86.9598C87.2366 8.2847 87.5021 8.39278 87.6978 8.58492C87.8936 8.77707 88.0037 9.03758 88.004 9.30932V104.63Z" fill="#2D3E50"/>
</svg>