<svg width="27" height="29" viewBox="0 0 27 29" fill="none" xmlns="http://www.w3.org/2000/svg">
<path d="M26.4436 28.4542C26.4062 26.2848 26.2406 24.1194 25.9476 21.9689C25.878 21.5702 25.7136 21.1932 25.4679 20.8684C25.2222 20.5437 24.902 20.2803 24.5333 20.0996C22.0741 18.896 16.6777 17.1184 16.6777 17.1184V15.3696L16.8279 15.2584C17.8755 14.4717 18.5761 13.3208 18.7854 12.0426L18.8156 11.8562H18.9621C19.3577 11.8561 19.7443 11.7403 20.0725 11.5236C20.4008 11.3069 20.6559 10.9992 20.8053 10.6397C20.9832 10.3241 21.0765 9.96929 21.0764 9.60859C21.0765 9.36025 21.0284 9.11417 20.9347 8.88347C20.8878 8.63116 20.745 8.40577 20.5351 8.25292L20.0372 7.95621L20.161 7.42582C20.3551 6.52372 20.3397 5.59029 20.1161 4.6948C19.8925 3.7993 19.4663 2.96472 18.8691 2.25296C18.272 1.5412 17.5192 0.970535 16.6667 0.583297C15.8142 0.196059 14.8838 0.00218677 13.9445 0.016064C13.8453 0.014242 13.747 0.0133314 13.6497 0.0151535C13.5524 0.0133314 13.4541 0.014242 13.3549 0.016064C12.4156 0.00218954 11.4852 0.196063 10.6327 0.583302C9.78017 0.970541 9.02742 1.54121 8.43029 2.25297C7.83315 2.96472 7.40696 3.79931 7.18333 4.6948C6.95969 5.5903 6.94436 6.52372 7.13846 7.42582L7.26221 7.95621L6.76432 8.25292C6.55447 8.40577 6.41163 8.63116 6.36469 8.88347C6.27104 9.11417 6.22295 9.36025 6.22298 9.60859C6.22289 9.96929 6.31619 10.3241 6.49412 10.6397C6.64351 10.9992 6.8986 11.3069 7.22688 11.5236C7.55516 11.7403 7.94175 11.8561 8.33735 11.8563H8.48378L8.51401 12.0426C8.72336 13.3209 9.42393 14.4717 10.4715 15.2584L10.6218 15.3696V17.1185C10.6218 17.1185 5.22533 18.896 2.76613 20.0996C2.39739 20.2803 2.0772 20.5437 1.83149 20.8685C1.58578 21.1932 1.42146 21.5702 1.35183 21.969C1.05883 24.1195 0.893213 26.2849 0.855835 28.4542H26.4436V28.4542Z" fill="#1D75B8"/>
</svg>