<svg width="22" height="4" viewBox="0 0 22 4" fill="none" xmlns="http://www.w3.org/2000/svg">
<path d="M19.5597 0.402074H2.0738C1.84383 0.401554 1.61601 0.445564 1.4034 0.531579C1.19078 0.617593 0.997547 0.743926 0.834748 0.903343C0.671949 1.06276 0.542787 1.25213 0.454659 1.46061C0.366532 1.66908 0.321167 1.89258 0.321167 2.11829C0.321167 2.344 0.366532 2.56749 0.454659 2.77597C0.542787 2.98444 0.671949 3.17381 0.834748 3.33323C0.997547 3.49265 1.19078 3.61898 1.4034 3.70499C1.61601 3.79101 1.84383 3.83502 2.0738 3.8345H19.5598C20.0228 3.83345 20.4665 3.65217 20.7936 3.33044C21.1207 3.0087 21.3043 2.57277 21.3043 2.11829C21.3043 1.6638 21.1207 1.22788 20.7936 0.906137C20.4665 0.584398 20.0228 0.403121 19.5598 0.402074H19.5597Z" fill="#1D75B8"/>
</svg>