<svg width="18" height="13" viewBox="0 0 18 13" fill="none" xmlns="http://www.w3.org/2000/svg">
<path d="M14.323 1.06884L7.15275 8.10631L3.53531 4.55537C3.37303 4.39565 3.18026 4.2689 2.96804 4.18236C2.75581 4.09582 2.52828 4.05119 2.29847 4.05102C2.06865 4.05085 1.84105 4.09515 1.6287 4.18138C1.41634 4.26761 1.22337 4.39408 1.06085 4.55356C0.898334 4.71304 0.769438 4.9024 0.681538 5.11081C0.593639 5.31922 0.548459 5.5426 0.548584 5.76816C0.548709 5.99372 0.594137 6.21704 0.682268 6.42536C0.770398 6.63367 0.89951 6.82289 1.06221 6.9822L5.91632 11.7468C6.24437 12.0686 6.68922 12.2494 7.15305 12.2493C7.61687 12.2493 8.06169 12.0684 8.38967 11.7465L16.7962 3.49567C16.9592 3.33642 17.0886 3.14717 17.177 2.93877C17.2653 2.73037 17.311 2.50691 17.3112 2.28118C17.3115 2.05544 17.2664 1.83188 17.1784 1.62329C17.0905 1.4147 16.9616 1.22518 16.7989 1.06558C16.6363 0.905981 16.4431 0.77944 16.2306 0.693209C16.018 0.606978 15.7902 0.562748 15.5603 0.563051C15.3303 0.563354 15.1026 0.608191 14.8903 0.694982C14.678 0.781773 14.4852 0.908813 14.323 1.06884H14.323Z" fill="#1D75B8"/>
</svg>